# xmcd
#
# Track frame offsets:
#	150
#	15139
#	40668
#	61857
#	76303
#	91970
#	101535
#	123435
#
# Disc length: 1816 seconds
#
# Revision: 1
# Processed by: cddbd v1.5.2PL0 Copyright (c) Steve Scherf et al.
# Submitted via: audiograbber 1.83.01
#
DISCID=4e071608
DTITLE=Miraculous Mule - Blues Uzi
DYEAR=1900
DGENRE=
TTITLE0=Blues Uzi
TTITLE1=Highway Sound
TTITLE2=I Dont't Do Nobody Nothin'
TTITLE3=City of Refuge
TTITLE4=Judgement
TTITLE5=Motherless Child
TTITLE6=Wayfaring Stranger
TTITLE7=I Know I've Benn Changed
EXTD=
EXTT0=
EXTT1=
EXTT2=
EXTT3=
EXTT4=
EXTT5=
EXTT6=
EXTT7=
PLAYORDER=
